<svg xmlns="http://www.w3.org/2000/svg" xmlns:xlink="http://www.w3.org/1999/xlink" viewBox="0,0,256,256" width="50px" height="50px" fill-rule="nonzero"><g fill="#fff" fill-rule="nonzero" stroke="none" stroke-width="1" stroke-linecap="butt" stroke-linejoin="miter" stroke-miterlimit="10" stroke-dasharray="" stroke-dashoffset="0" font-family="none" font-weight="none" font-size="none" text-anchor="none" style="mix-blend-mode: normal"><g transform="scale(5.12,5.12)"><path d="M15,4c-6.06341,0 -11,4.93659 -11,11v20c0,6.06341 4.93659,11 11,11h20c6.06341,0 11,-4.93659 11,-11v-20c0,-6.06341 -4.93659,-11 -11,-11zM16.74023,6h10.68555l5.83398,10h-10.68555zM29.74023,6h5.25977c4.98259,0 9,4.01741 9,9v1h-8.42578zM14.48633,6.10352l5.77344,9.89648h-14.25977v-1c0,-4.80017 3.75819,-8.61702 8.48633,-8.89648zM6,18h38v17c0,4.98259 -4.01741,9 -9,9h-20c-4.98259,0 -9,-4.01741 -9,-9zM21.97852,23.01367c-1.54336,0.0362 -2.97852,1.25561 -2.97852,2.94336v9.08398c0,2.25033 2.55234,3.67224 4.50977,2.55664l7.98828,-4.54102c1.9448,-1.10503 1.9448,-4.01216 0,-5.11719l-7.98828,-4.54102h-0.00195c-0.48937,-0.27783 -1.01484,-0.39683 -1.5293,-0.38477zM21.98242,24.98633c0.1762,0.0019 0.35998,0.04872 0.53906,0.15039l7.99023,4.54102c0.7092,0.40297 0.7092,1.23766 0,1.64063l-7.99219,4.54102c-0.71658,0.4084 -1.51953,-0.05069 -1.51953,-0.81836v-9.08398c0,-0.38384 0.2014,-0.68965 0.49219,-0.84961c0.14539,-0.07998 0.31403,-0.123 0.49023,-0.12109z"></path></g></g></svg>